<svg xmlns="http://www.w3.org/2000/svg" viewBox="0 0 320 180" role="img" aria-label="Binairo Vorschau">
  <rect width="320" height="180" fill="#0f172a"/>
  <g font-family="ui-sans-serif,system-ui" font-size="11" font-weight="800" text-anchor="middle">
    <!-- 5 cols × 4 rows preview cells -->
    <g transform="translate(80,30)">
      <circle cx="20" cy="20" r="14" fill="#0ea5e9"/><text x="20" y="24" fill="#fff">0</text>
      <circle cx="50" cy="20" r="14" fill="#f43f5e"/><text x="50" y="24" fill="#fff">1</text>
      <circle cx="80" cy="20" r="14" fill="#1e293b" stroke="#334155" stroke-width="2"/>
      <circle cx="110" cy="20" r="14" fill="#f43f5e"/><text x="110" y="24" fill="#fff">1</text>
      <circle cx="140" cy="20" r="14" fill="#0ea5e9"/><text x="140" y="24" fill="#fff">0</text>

      <circle cx="20" cy="50" r="14" fill="#f43f5e"/><text x="20" y="54" fill="#fff">1</text>
      <circle cx="50" cy="50" r="14" fill="#0ea5e9"/><text x="50" y="54" fill="#fff">0</text>
      <circle cx="80" cy="50" r="14" fill="#f43f5e"/><text x="80" y="54" fill="#fff">1</text>
      <circle cx="110" cy="50" r="14" fill="#1e293b" stroke="#334155" stroke-width="2"/>
      <circle cx="140" cy="50" r="14" fill="#0ea5e9"/><text x="140" y="54" fill="#fff">0</text>

      <circle cx="20" cy="80" r="14" fill="#0ea5e9"/><text x="20" y="84" fill="#fff">0</text>
      <circle cx="50" cy="80" r="14" fill="#f43f5e"/><text x="50" y="84" fill="#fff">1</text>
      <circle cx="80" cy="80" r="14" fill="#0ea5e9"/><text x="80" y="84" fill="#fff">0</text>
      <circle cx="110" cy="80" r="14" fill="#0ea5e9"/><text x="110" y="84" fill="#fff">0</text>
      <circle cx="140" cy="80" r="14" fill="#f43f5e"/><text x="140" y="84" fill="#fff">1</text>

      <circle cx="20" cy="110" r="14" fill="#f43f5e"/><text x="20" y="114" fill="#fff">1</text>
      <circle cx="50" cy="110" r="14" fill="#1e293b" stroke="#334155" stroke-width="2"/>
      <circle cx="80" cy="110" r="14" fill="#f43f5e"/><text x="80" y="114" fill="#fff">1</text>
      <circle cx="110" cy="110" r="14" fill="#0ea5e9"/><text x="110" y="114" fill="#fff">0</text>
      <circle cx="140" cy="110" r="14" fill="#1e293b" stroke="#334155" stroke-width="2"/>
    </g>
  </g>
</svg>
