<svg xmlns="http://www.w3.org/2000/svg" viewBox="0 0 320 180" role="img" aria-label="Bingo Vorschau">
  <rect width="320" height="180" fill="#020617"/>
  <g font-family="'Segoe UI', system-ui, sans-serif" text-anchor="middle">
    <text x="160" y="22" font-size="14" font-weight="700" fill="#fbbf24">BINGO</text>

    <!-- BINGO headers -->
    <g font-size="12" font-weight="700" fill="#fbbf24">
      <text x="84"  y="46">B</text>
      <text x="116" y="46">I</text>
      <text x="148" y="46">N</text>
      <text x="180" y="46">G</text>
      <text x="212" y="46">O</text>
    </g>

    <!-- 5x5 grid of cells -->
    <g font-size="11" font-weight="700">
      <!-- Row 1 -->
      <rect x="68"  y="52" width="32" height="22" rx="4" fill="#1e293b"/>
      <text x="84"  y="68" fill="#cbd5e1">7</text>
      <rect x="100" y="52" width="32" height="22" rx="4" fill="#fbbf24"/>
      <text x="116" y="68" fill="#0f172a">22</text>
      <rect x="132" y="52" width="32" height="22" rx="4" fill="#1e293b"/>
      <text x="148" y="68" fill="#cbd5e1">31</text>
      <rect x="164" y="52" width="32" height="22" rx="4" fill="#fbbf24"/>
      <text x="180" y="68" fill="#0f172a">50</text>
      <rect x="196" y="52" width="32" height="22" rx="4" fill="#1e293b"/>
      <text x="212" y="68" fill="#cbd5e1">62</text>

      <!-- Row 2 -->
      <rect x="68"  y="78" width="32" height="22" rx="4" fill="#fbbf24"/>
      <text x="84"  y="94" fill="#0f172a">11</text>
      <rect x="100" y="78" width="32" height="22" rx="4" fill="#1e293b"/>
      <text x="116" y="94" fill="#cbd5e1">19</text>
      <rect x="132" y="78" width="32" height="22" rx="4" fill="#fbbf24"/>
      <text x="148" y="94" fill="#0f172a">38</text>
      <rect x="164" y="78" width="32" height="22" rx="4" fill="#1e293b"/>
      <text x="180" y="94" fill="#cbd5e1">57</text>
      <rect x="196" y="78" width="32" height="22" rx="4" fill="#1e293b"/>
      <text x="212" y="94" fill="#cbd5e1">73</text>

      <!-- Row 3 (centre) -->
      <rect x="68"  y="104" width="32" height="22" rx="4" fill="#1e293b"/>
      <text x="84"  y="120" fill="#cbd5e1">3</text>
      <rect x="100" y="104" width="32" height="22" rx="4" fill="#1e293b"/>
      <text x="116" y="120" fill="#cbd5e1">25</text>
      <rect x="132" y="104" width="32" height="22" rx="4" fill="#fbbf24"/>
      <text x="148" y="120" fill="#0f172a" font-size="8">FREI</text>
      <rect x="164" y="104" width="32" height="22" rx="4" fill="#1e293b"/>
      <text x="180" y="120" fill="#cbd5e1">46</text>
      <rect x="196" y="104" width="32" height="22" rx="4" fill="#fbbf24"/>
      <text x="212" y="120" fill="#0f172a">65</text>

      <!-- Row 4 -->
      <rect x="68"  y="130" width="32" height="22" rx="4" fill="#1e293b"/>
      <text x="84"  y="146" fill="#cbd5e1">5</text>
      <rect x="100" y="130" width="32" height="22" rx="4" fill="#fbbf24"/>
      <text x="116" y="146" fill="#0f172a">28</text>
      <rect x="132" y="130" width="32" height="22" rx="4" fill="#1e293b"/>
      <text x="148" y="146" fill="#cbd5e1">44</text>
      <rect x="164" y="130" width="32" height="22" rx="4" fill="#1e293b"/>
      <text x="180" y="146" fill="#cbd5e1">53</text>
      <rect x="196" y="130" width="32" height="22" rx="4" fill="#1e293b"/>
      <text x="212" y="146" fill="#cbd5e1">70</text>
    </g>
  </g>
</svg>
