<svg xmlns="http://www.w3.org/2000/svg" viewBox="0 0 320 180" role="img" aria-label="Blockstapler Vorschau">
  <rect width="320" height="180" fill="#0f172a"/>
  <g transform="translate(100 10)">
    <rect width="120" height="160" fill="#1e293b" rx="3"/>
    <rect x="0" y="20" width="20" height="20" fill="#a855f7"/>
    <rect x="20" y="20" width="20" height="20" fill="#a855f7"/>
    <rect x="20" y="40" width="20" height="20" fill="#a855f7"/>
    <rect x="40" y="40" width="20" height="20" fill="#a855f7"/>
    <rect x="60" y="80" width="20" height="20" fill="#3b82f6"/>
    <rect x="80" y="80" width="20" height="20" fill="#3b82f6"/>
    <rect x="100" y="80" width="20" height="20" fill="#3b82f6"/>
    <rect x="100" y="100" width="20" height="20" fill="#3b82f6"/>
    <rect x="0" y="120" width="20" height="20" fill="#ef4444"/>
    <rect x="20" y="120" width="20" height="20" fill="#22c55e"/>
    <rect x="40" y="120" width="20" height="20" fill="#22c55e"/>
    <rect x="60" y="120" width="20" height="20" fill="#22c55e"/>
    <rect x="80" y="120" width="20" height="20" fill="#06b6d4"/>
    <rect x="100" y="120" width="20" height="20" fill="#06b6d4"/>
    <rect x="0" y="140" width="120" height="20" fill="#f59e0b"/>
  </g>
</svg>
