<svg xmlns="http://www.w3.org/2000/svg" viewBox="0 0 320 180" role="img" aria-label="Ziegelbruch Vorschau">
  <rect width="320" height="180" fill="#0f172a"/>
  <g>
    <rect x="20" y="20" width="36" height="14" rx="2" fill="#ef4444"/>
    <rect x="58" y="20" width="36" height="14" rx="2" fill="#ef4444"/>
    <rect x="96" y="20" width="36" height="14" rx="2" fill="#ef4444"/>
    <rect x="134" y="20" width="36" height="14" rx="2" fill="#ef4444"/>
    <rect x="172" y="20" width="36" height="14" rx="2" fill="#ef4444"/>
    <rect x="210" y="20" width="36" height="14" rx="2" fill="#ef4444"/>
    <rect x="248" y="20" width="36" height="14" rx="2" fill="#ef4444"/>
    <rect x="20" y="38" width="36" height="14" rx="2" fill="#f59e0b"/>
    <rect x="58" y="38" width="36" height="14" rx="2" fill="#f59e0b"/>
    <rect x="96" y="38" width="36" height="14" rx="2" fill="#f59e0b"/>
    <rect x="134" y="38" width="36" height="14" rx="2" fill="#f59e0b"/>
    <rect x="172" y="38" width="36" height="14" rx="2" fill="#f59e0b"/>
    <rect x="248" y="38" width="36" height="14" rx="2" fill="#f59e0b"/>
    <rect x="20" y="56" width="36" height="14" rx="2" fill="#eab308"/>
    <rect x="96" y="56" width="36" height="14" rx="2" fill="#eab308"/>
    <rect x="134" y="56" width="36" height="14" rx="2" fill="#eab308"/>
    <rect x="210" y="56" width="36" height="14" rx="2" fill="#eab308"/>
    <rect x="248" y="56" width="36" height="14" rx="2" fill="#eab308"/>
    <rect x="58" y="74" width="36" height="14" rx="2" fill="#22c55e"/>
    <rect x="172" y="74" width="36" height="14" rx="2" fill="#22c55e"/>
    <rect x="248" y="74" width="36" height="14" rx="2" fill="#22c55e"/>
  </g>
  <circle cx="180" cy="120" r="7" fill="#fcd34d"/>
  <rect x="130" y="155" width="80" height="12" rx="4" fill="#e2e8f0"/>
</svg>
