<svg xmlns="http://www.w3.org/2000/svg" viewBox="0 0 320 180" role="img" aria-label="Conway Battle Vorschau">
  <rect width="320" height="180" fill="#0f172a"/>
  <g fill="#0ea5e9">
    <rect x="40" y="40" width="10" height="10"/>
    <rect x="50" y="50" width="10" height="10"/>
    <rect x="60" y="60" width="10" height="10"/>
    <rect x="40" y="60" width="10" height="10"/>
    <rect x="50" y="30" width="10" height="10"/>
    <rect x="70" y="50" width="10" height="10"/>
    <rect x="80" y="40" width="10" height="10"/>
    <rect x="100" y="80" width="10" height="10"/>
    <rect x="110" y="90" width="10" height="10"/>
    <rect x="120" y="100" width="10" height="10"/>
  </g>
  <g fill="#f43f5e">
    <rect x="200" y="40" width="10" height="10"/>
    <rect x="210" y="50" width="10" height="10"/>
    <rect x="220" y="40" width="10" height="10"/>
    <rect x="230" y="60" width="10" height="10"/>
    <rect x="220" y="60" width="10" height="10"/>
    <rect x="240" y="50" width="10" height="10"/>
    <rect x="250" y="80" width="10" height="10"/>
    <rect x="260" y="90" width="10" height="10"/>
    <rect x="240" y="110" width="10" height="10"/>
    <rect x="260" y="120" width="10" height="10"/>
  </g>
  <line x1="160" y1="20" x2="160" y2="160" stroke="#fbbf24" stroke-width="1" stroke-dasharray="4 4"/>
</svg>
