<svg xmlns="http://www.w3.org/2000/svg" viewBox="0 0 320 180" role="img" aria-label="Kreuzworträtsel Vorschau">
  <rect width="320" height="180" fill="#0f172a"/>
  <g>
    <rect x="80" y="20" width="20" height="20" fill="#cbd5e1"/>
    <rect x="100" y="20" width="20" height="20" fill="#cbd5e1"/>
    <rect x="120" y="20" width="20" height="20" fill="#cbd5e1"/>
    <rect x="140" y="20" width="20" height="20" fill="#cbd5e1"/>
    <rect x="160" y="20" width="20" height="20" fill="#020617"/>
    <rect x="180" y="20" width="20" height="20" fill="#cbd5e1"/>
    <rect x="200" y="20" width="20" height="20" fill="#cbd5e1"/>
    <rect x="220" y="20" width="20" height="20" fill="#cbd5e1"/>
    <rect x="80" y="40" width="20" height="20" fill="#cbd5e1"/>
    <rect x="100" y="40" width="20" height="20" fill="#020617"/>
    <rect x="120" y="40" width="20" height="20" fill="#cbd5e1"/>
    <rect x="140" y="40" width="20" height="20" fill="#020617"/>
    <rect x="160" y="40" width="20" height="20" fill="#cbd5e1"/>
    <rect x="180" y="40" width="20" height="20" fill="#cbd5e1"/>
    <rect x="200" y="40" width="20" height="20" fill="#020617"/>
    <rect x="220" y="40" width="20" height="20" fill="#cbd5e1"/>
    <rect x="80" y="60" width="20" height="20" fill="#cbd5e1"/>
    <rect x="100" y="60" width="20" height="20" fill="#cbd5e1"/>
    <rect x="120" y="60" width="20" height="20" fill="#cbd5e1"/>
    <rect x="140" y="60" width="20" height="20" fill="#cbd5e1"/>
    <rect x="160" y="60" width="20" height="20" fill="#cbd5e1"/>
    <rect x="180" y="60" width="20" height="20" fill="#020617"/>
    <rect x="200" y="60" width="20" height="20" fill="#cbd5e1"/>
    <rect x="220" y="60" width="20" height="20" fill="#cbd5e1"/>
  </g>
  <g font-family="ui-sans-serif,system-ui" font-size="14" font-weight="800" text-anchor="middle" fill="#0f172a">
    <text x="90" y="35">W</text>
    <text x="110" y="35">A</text>
    <text x="130" y="35">S</text>
    <text x="150" y="35">S</text>
    <text x="90" y="75">L</text>
  </g>
  <g fill="#cbd5e1" font-size="10" font-family="ui-sans-serif,system-ui">
    <text x="260" y="35">1. Hahn</text>
    <text x="260" y="55">2. Himmel</text>
    <text x="260" y="75">3. Planet</text>
  </g>
</svg>
