<svg xmlns="http://www.w3.org/2000/svg" viewBox="0 0 320 180" role="img" aria-label="Verbinden Vorschau">
  <rect width="320" height="180" fill="#0f172a"/>
  <g transform="translate(80 10)">
    <rect width="160" height="160" rx="6" fill="#1e293b"/>
    <g stroke="#0f172a" stroke-width="2">
      <line x1="32" y1="0" x2="32" y2="160"/>
      <line x1="64" y1="0" x2="64" y2="160"/>
      <line x1="96" y1="0" x2="96" y2="160"/>
      <line x1="128" y1="0" x2="128" y2="160"/>
      <line x1="0" y1="32" x2="160" y2="32"/>
      <line x1="0" y1="64" x2="160" y2="64"/>
      <line x1="0" y1="96" x2="160" y2="96"/>
      <line x1="0" y1="128" x2="160" y2="128"/>
    </g>
    <path d="M 16 16 L 16 80 L 48 80 L 48 144" stroke="#ef4444" stroke-width="10" fill="none" stroke-linecap="round"/>
    <path d="M 144 16 L 80 16 L 80 80 L 112 80 L 112 144" stroke="#22c55e" stroke-width="10" fill="none" stroke-linecap="round"/>
    <path d="M 144 48 L 144 112" stroke="#3b82f6" stroke-width="10" fill="none" stroke-linecap="round"/>
    <circle cx="16" cy="16" r="9" fill="#ef4444"/>
    <circle cx="48" cy="144" r="9" fill="#ef4444"/>
    <circle cx="144" cy="16" r="9" fill="#22c55e"/>
    <circle cx="112" cy="144" r="9" fill="#22c55e"/>
    <circle cx="144" cy="48" r="9" fill="#3b82f6"/>
    <circle cx="144" cy="112" r="9" fill="#3b82f6"/>
  </g>
</svg>
