<svg xmlns="http://www.w3.org/2000/svg" viewBox="0 0 320 180" role="img" aria-label="FreeCell Vorschau">
  <rect width="320" height="180" fill="#065f46"/>
  <g font-family="ui-sans-serif,system-ui" font-size="11" font-weight="700">
    <rect x="20" y="10" width="28" height="38" rx="3" fill="#ffffff" stroke="#cbd5e1"/>
    <rect x="52" y="10" width="28" height="38" rx="3" fill="#ffffff" stroke="#cbd5e1"/>
    <rect x="84" y="10" width="28" height="38" rx="3" fill="#ffffff" stroke="#cbd5e1"/>
    <rect x="116" y="10" width="28" height="38" rx="3" fill="#ffffff" stroke="#cbd5e1"/>
    <rect x="172" y="10" width="28" height="38" rx="3" fill="#fef3c7" stroke="#facc15"/>
    <text x="186" y="33" text-anchor="middle" fill="#0f172a">A♠</text>
    <rect x="204" y="10" width="28" height="38" rx="3" fill="#fef3c7" stroke="#facc15"/>
    <text x="218" y="33" text-anchor="middle" fill="#dc2626">2♥</text>
    <rect x="236" y="10" width="28" height="38" rx="3" fill="#fef3c7" stroke="#facc15"/>
    <text x="250" y="33" text-anchor="middle" fill="#dc2626">A♦</text>
    <rect x="268" y="10" width="28" height="38" rx="3" fill="#fef3c7" stroke="#facc15"/>
    <text x="282" y="33" text-anchor="middle" fill="#0f172a">♣</text>

    <rect x="20" y="60" width="28" height="38" rx="3" fill="#ffffff"/>
    <text x="34" y="83" text-anchor="middle" fill="#0f172a">K♠</text>
    <rect x="56" y="60" width="28" height="38" rx="3" fill="#ffffff"/>
    <text x="70" y="83" text-anchor="middle" fill="#dc2626">D♥</text>
    <rect x="92" y="60" width="28" height="38" rx="3" fill="#ffffff"/>
    <text x="106" y="83" text-anchor="middle" fill="#0f172a">B♣</text>
    <rect x="128" y="60" width="28" height="38" rx="3" fill="#ffffff"/>
    <text x="142" y="83" text-anchor="middle" fill="#dc2626">10♦</text>
    <rect x="164" y="60" width="28" height="38" rx="3" fill="#ffffff"/>
    <text x="178" y="83" text-anchor="middle" fill="#0f172a">9♠</text>
    <rect x="200" y="60" width="28" height="38" rx="3" fill="#ffffff"/>
    <text x="214" y="83" text-anchor="middle" fill="#dc2626">8♥</text>
    <rect x="236" y="60" width="28" height="38" rx="3" fill="#ffffff"/>
    <text x="250" y="83" text-anchor="middle" fill="#0f172a">7♣</text>
    <rect x="272" y="60" width="28" height="38" rx="3" fill="#ffffff"/>
    <text x="286" y="83" text-anchor="middle" fill="#dc2626">6♦</text>

    <rect x="56" y="100" width="28" height="38" rx="3" fill="#ffffff"/>
    <text x="70" y="123" text-anchor="middle" fill="#0f172a">5♣</text>
    <rect x="92" y="100" width="28" height="38" rx="3" fill="#ffffff"/>
    <text x="106" y="123" text-anchor="middle" fill="#dc2626">4♥</text>
    <rect x="128" y="100" width="28" height="38" rx="3" fill="#ffffff"/>
    <text x="142" y="123" text-anchor="middle" fill="#0f172a">3♠</text>

    <rect x="92" y="138" width="28" height="38" rx="3" fill="#ffffff"/>
    <text x="106" y="161" text-anchor="middle" fill="#dc2626">2♦</text>
  </g>
</svg>
