<svg xmlns="http://www.w3.org/2000/svg" viewBox="0 0 320 180" role="img" aria-label="Frogger Vorschau">
  <rect width="320" height="180" fill="#0f172a"/>
  <rect y="20" width="320" height="40" fill="#0c4a6e"/>
  <rect x="40" y="28" width="60" height="24" fill="#92400e" rx="3"/>
  <rect x="160" y="28" width="80" height="24" fill="#92400e" rx="3"/>
  <rect y="80" width="320" height="40" fill="#1f2937"/>
  <rect x="20" y="92" width="40" height="16" fill="#ef4444" rx="3"/>
  <rect x="120" y="92" width="40" height="16" fill="#0ea5e9" rx="3"/>
  <rect x="220" y="92" width="40" height="16" fill="#a855f7" rx="3"/>
  <line x1="0" y1="100" x2="320" y2="100" stroke="#475569" stroke-dasharray="10 10"/>
  <rect y="140" width="320" height="30" fill="#334155"/>
  <rect x="150" y="145" width="20" height="20" rx="6" fill="#10b981"/>
  <circle cx="158" cy="153" r="2" fill="#fff"/>
  <circle cx="162" cy="153" r="2" fill="#fff"/>
  <g fill="#1e3a8a">
    <circle cx="32" cy="40" r="10"/>
    <circle cx="96" cy="40" r="10"/>
    <circle cx="160" cy="40" r="10"/>
    <circle cx="224" cy="40" r="10"/>
    <circle cx="288" cy="40" r="10"/>
  </g>
</svg>
