<svg xmlns="http://www.w3.org/2000/svg" viewBox="0 0 320 180" role="img" aria-label="Futoshiki Vorschau">
  <rect width="320" height="180" fill="#0f172a"/>
  <g font-family="ui-sans-serif,system-ui" font-size="18" font-weight="800" text-anchor="middle">
    <g fill="#1e293b" stroke="#334155">
      <rect x="80" y="20" width="32" height="32" rx="4"/>
      <rect x="125" y="20" width="32" height="32" rx="4"/>
      <rect x="170" y="20" width="32" height="32" rx="4"/>
      <rect x="215" y="20" width="32" height="32" rx="4"/>
      <rect x="80" y="65" width="32" height="32" rx="4"/>
      <rect x="125" y="65" width="32" height="32" rx="4"/>
      <rect x="170" y="65" width="32" height="32" rx="4"/>
      <rect x="215" y="65" width="32" height="32" rx="4"/>
      <rect x="80" y="110" width="32" height="32" rx="4"/>
      <rect x="125" y="110" width="32" height="32" rx="4"/>
      <rect x="170" y="110" width="32" height="32" rx="4"/>
      <rect x="215" y="110" width="32" height="32" rx="4"/>
    </g>
    <g fill="#fff">
      <text x="96" y="42">2</text>
      <text x="141" y="42">3</text>
      <text x="186" y="42">1</text>
      <text x="231" y="42">4</text>
      <text x="96" y="87">4</text>
      <text x="141" y="87">1</text>
      <text x="231" y="87">3</text>
      <text x="96" y="132">1</text>
      <text x="231" y="132">2</text>
    </g>
    <g fill="#fbbf24" font-size="14">
      <text x="118" y="42">&lt;</text>
      <text x="163" y="42">&gt;</text>
      <text x="208" y="42">&lt;</text>
      <text x="118" y="132">&lt;</text>
      <text x="163" y="132">&gt;</text>
    </g>
  </g>
</svg>
