<svg xmlns="http://www.w3.org/2000/svg" viewBox="0 0 320 180" role="img" aria-label="Gfrett Vorschau">
  <rect width="320" height="180" fill="#1e293b"/>
  <g>
    <rect x="40" y="20" width="180" height="140" rx="10" fill="#0f172a"/>
    <g>
      <rect x="50" y="30" width="56" height="26" rx="5" fill="#ef4444" stroke="#000000" stroke-opacity="0.25" stroke-width="2"/>
      <rect x="114" y="30" width="56" height="26" rx="5" fill="#3b82f6" stroke="#000000" stroke-opacity="0.25" stroke-width="2"/>
      <rect x="50" y="64" width="26" height="56" rx="5" fill="#f59e0b" stroke="#000000" stroke-opacity="0.25" stroke-width="2"/>
      <rect x="84" y="64" width="86" height="26" rx="5" fill="#22c55e" stroke="#000000" stroke-opacity="0.25" stroke-width="2"/>
      <rect x="84" y="98" width="56" height="26" rx="5" fill="#a855f7" stroke="#000000" stroke-opacity="0.25" stroke-width="2"/>
      <rect x="148" y="98" width="26" height="56" rx="5" fill="#06b6d4" stroke="#000000" stroke-opacity="0.25" stroke-width="2"/>
      <rect x="50" y="128" width="86" height="26" rx="5" fill="#ef4444" stroke="#000000" stroke-opacity="0.25" stroke-width="2"/>
    </g>
    <polygon points="220,87 240,75 240,82 248,82 248,92 240,92 240,99" fill="#10b981"/>
  </g>
  <g transform="translate(258,20)">
    <rect x="0" y="0" width="42" height="140" rx="8" fill="#0f172a" stroke="#475569" stroke-width="2"/>
    <rect x="8" y="10" width="26" height="18" rx="4" fill="#ef4444"/>
    <rect x="8" y="34" width="26" height="18" rx="4" fill="#3b82f6"/>
    <rect x="8" y="58" width="26" height="18" rx="4" fill="#ef4444"/>
    <rect x="8" y="82" width="26" height="18" rx="4" fill="#22c55e"/>
    <rect x="8" y="106" width="26" height="18" rx="4" fill="#1e293b" stroke="#475569" stroke-width="1"/>
  </g>
</svg>
