<svg xmlns="http://www.w3.org/2000/svg" viewBox="0 0 320 180" role="img" aria-label="Hitori Vorschau">
  <rect width="320" height="180" fill="#0f172a"/>
  <g font-family="ui-sans-serif,system-ui" font-size="18" font-weight="800" text-anchor="middle">
    <g>
      <rect x="80" y="20" width="32" height="32" rx="3" fill="#1e293b"/>
      <rect x="115" y="20" width="32" height="32" rx="3" fill="#020617"/>
      <rect x="150" y="20" width="32" height="32" rx="3" fill="#1e293b"/>
      <rect x="185" y="20" width="32" height="32" rx="3" fill="#1e293b"/>
      <rect x="220" y="20" width="32" height="32" rx="3" fill="#020617"/>
      <rect x="80" y="55" width="32" height="32" rx="3" fill="#1e293b"/>
      <rect x="115" y="55" width="32" height="32" rx="3" fill="#1e293b"/>
      <rect x="150" y="55" width="32" height="32" rx="3" fill="#020617"/>
      <rect x="185" y="55" width="32" height="32" rx="3" fill="#1e293b"/>
      <rect x="220" y="55" width="32" height="32" rx="3" fill="#1e293b"/>
      <rect x="80" y="90" width="32" height="32" rx="3" fill="#020617"/>
      <rect x="115" y="90" width="32" height="32" rx="3" fill="#1e293b"/>
      <rect x="150" y="90" width="32" height="32" rx="3" fill="#1e293b"/>
      <rect x="185" y="90" width="32" height="32" rx="3" fill="#020617"/>
      <rect x="220" y="90" width="32" height="32" rx="3" fill="#1e293b"/>
      <rect x="80" y="125" width="32" height="32" rx="3" fill="#1e293b"/>
      <rect x="115" y="125" width="32" height="32" rx="3" fill="#1e293b"/>
      <rect x="150" y="125" width="32" height="32" rx="3" fill="#1e293b"/>
      <rect x="185" y="125" width="32" height="32" rx="3" fill="#1e293b"/>
      <rect x="220" y="125" width="32" height="32" rx="3" fill="#020617"/>
    </g>
    <g fill="#fff">
      <text x="96" y="42">3</text>
      <text x="166" y="42">2</text>
      <text x="201" y="42">5</text>
      <text x="96" y="77">1</text>
      <text x="131" y="77">4</text>
      <text x="201" y="77">5</text>
      <text x="236" y="77">2</text>
      <text x="131" y="112">2</text>
      <text x="166" y="112">3</text>
      <text x="236" y="112">1</text>
      <text x="96" y="147">5</text>
      <text x="131" y="147">1</text>
      <text x="166" y="147">4</text>
      <text x="201" y="147">2</text>
    </g>
  </g>
</svg>
