<svg xmlns="http://www.w3.org/2000/svg" viewBox="0 0 320 180" role="img" aria-label="Hex-Minensucher Vorschau">
  <rect width="320" height="180" fill="#0f172a"/>
  <g stroke="#475569" stroke-width="1.5">
    <polygon points="100,40 117,50 117,70 100,80 83,70 83,50" fill="#1e293b"/>
    <polygon points="135,40 152,50 152,70 135,80 118,70 118,50" fill="#1e293b"/>
    <polygon points="170,40 187,50 187,70 170,80 153,70 153,50" fill="#1e293b"/>
    <polygon points="205,40 222,50 222,70 205,80 188,70 188,50" fill="#7f1d1d"/>
    <polygon points="83,70 100,80 100,100 83,110 66,100 66,80" fill="#1e293b"/>
    <polygon points="118,70 135,80 135,100 118,110 101,100 101,80" fill="#334155"/>
    <polygon points="153,70 170,80 170,100 153,110 136,100 136,80" fill="#334155"/>
    <polygon points="188,70 205,80 205,100 188,110 171,100 171,80" fill="#1e293b"/>
    <polygon points="100,100 117,110 117,130 100,140 83,130 83,110" fill="#334155"/>
    <polygon points="135,100 152,110 152,130 135,140 118,130 118,110" fill="#334155"/>
    <polygon points="170,100 187,110 187,130 170,140 153,130 153,110" fill="#1e293b"/>
  </g>
  <g font-family="ui-sans-serif,system-ui" font-size="11" font-weight="800" text-anchor="middle">
    <text x="100" y="64" fill="#10b981">1</text>
    <text x="135" y="64" fill="#0ea5e9">2</text>
    <text x="170" y="64" fill="#ef4444">3</text>
    <text x="205" y="64" fill="#f43f5e">*</text>
    <text x="118" y="94" fill="#fbbf24">⚑</text>
    <text x="153" y="94" fill="#10b981">1</text>
    <text x="100" y="124" fill="#a855f7">4</text>
    <text x="135" y="124" fill="#0ea5e9">2</text>
  </g>
</svg>
