<svg xmlns="http://www.w3.org/2000/svg" viewBox="0 0 320 180" role="img" aria-label="Bildrätsel Vorschau">
  <rect width="320" height="180" fill="#f8fafc"/>
  <g font-family="ui-sans-serif,system-ui" font-size="9" font-weight="700" fill="#0f172a">
    <text x="48" y="16">1 3 1</text>
    <text x="78" y="16">2 2</text>
    <text x="108" y="16">5</text>
    <text x="138" y="16">2 2</text>
    <text x="168" y="16">1 3 1</text>
  </g>
  <g font-family="ui-sans-serif,system-ui" font-size="9" font-weight="700" fill="#0f172a" text-anchor="end">
    <text x="50" y="44">3</text>
    <text x="50" y="64">1 1</text>
    <text x="50" y="84">5</text>
    <text x="50" y="104">1 1</text>
    <text x="50" y="124">3</text>
  </g>
  <g transform="translate(60 30)">
    <rect width="120" height="100" fill="#ffffff" stroke="#0f172a" stroke-width="2"/>
    <g stroke="#cbd5e1" stroke-width="1">
      <line x1="0" y1="20" x2="120" y2="20"/>
      <line x1="0" y1="40" x2="120" y2="40"/>
      <line x1="0" y1="60" x2="120" y2="60"/>
      <line x1="0" y1="80" x2="120" y2="80"/>
      <line x1="24" y1="0" x2="24" y2="100"/>
      <line x1="48" y1="0" x2="48" y2="100"/>
      <line x1="72" y1="0" x2="72" y2="100"/>
      <line x1="96" y1="0" x2="96" y2="100"/>
    </g>
    <rect x="36" y="2" width="20" height="16" fill="#0f172a"/>
    <rect x="60" y="2" width="20" height="16" fill="#0f172a"/>
    <rect x="84" y="2" width="20" height="16" fill="#0f172a"/>
    <rect x="2" y="22" width="20" height="16" fill="#0f172a"/>
    <rect x="96" y="22" width="20" height="16" fill="#0f172a"/>
    <rect x="0" y="42" width="120" height="16" fill="#0f172a"/>
    <rect x="2" y="62" width="20" height="16" fill="#0f172a"/>
    <rect x="96" y="62" width="20" height="16" fill="#0f172a"/>
    <rect x="36" y="82" width="20" height="16" fill="#0f172a"/>
    <rect x="60" y="82" width="20" height="16" fill="#0f172a"/>
    <rect x="84" y="82" width="20" height="16" fill="#0f172a"/>
  </g>
</svg>
