<svg xmlns="http://www.w3.org/2000/svg" viewBox="0 0 320 180" role="img" aria-label="Nurikabe Vorschau">
  <rect width="320" height="180" fill="#0f172a"/>
  <g stroke="#475569">
    <rect x="80" y="20" width="32" height="32" fill="#fbbf24"/>
    <rect x="115" y="20" width="32" height="32" fill="#0369a1"/>
    <rect x="150" y="20" width="32" height="32" fill="#cbd5e1"/>
    <rect x="185" y="20" width="32" height="32" fill="#0369a1"/>
    <rect x="220" y="20" width="32" height="32" fill="#fbbf24"/>
    <rect x="80" y="55" width="32" height="32" fill="#0369a1"/>
    <rect x="115" y="55" width="32" height="32" fill="#0369a1"/>
    <rect x="150" y="55" width="32" height="32" fill="#0369a1"/>
    <rect x="185" y="55" width="32" height="32" fill="#cbd5e1"/>
    <rect x="220" y="55" width="32" height="32" fill="#0369a1"/>
    <rect x="80" y="90" width="32" height="32" fill="#fbbf24"/>
    <rect x="115" y="90" width="32" height="32" fill="#cbd5e1"/>
    <rect x="150" y="90" width="32" height="32" fill="#0369a1"/>
    <rect x="185" y="90" width="32" height="32" fill="#fbbf24"/>
    <rect x="220" y="90" width="32" height="32" fill="#0369a1"/>
    <rect x="80" y="125" width="32" height="32" fill="#0369a1"/>
    <rect x="115" y="125" width="32" height="32" fill="#0369a1"/>
    <rect x="150" y="125" width="32" height="32" fill="#cbd5e1"/>
    <rect x="185" y="125" width="32" height="32" fill="#0369a1"/>
    <rect x="220" y="125" width="32" height="32" fill="#fbbf24"/>
  </g>
  <g font-family="ui-sans-serif,system-ui" font-size="14" font-weight="800" text-anchor="middle" fill="#0f172a">
    <text x="96" y="41">1</text>
    <text x="236" y="41">1</text>
    <text x="96" y="111">3</text>
    <text x="201" y="111">2</text>
    <text x="236" y="146">1</text>
  </g>
</svg>
