<svg xmlns="http://www.w3.org/2000/svg" viewBox="0 0 320 180" role="img" aria-label="Pentomino Vorschau">
  <rect width="320" height="180" fill="#0f172a"/>
  <g>
    <!-- L piece -->
    <rect x="40" y="40" width="18" height="18" fill="#0ea5e9"/>
    <rect x="40" y="58" width="18" height="18" fill="#0ea5e9"/>
    <rect x="40" y="76" width="18" height="18" fill="#0ea5e9"/>
    <rect x="40" y="94" width="18" height="18" fill="#0ea5e9"/>
    <rect x="58" y="94" width="18" height="18" fill="#0ea5e9"/>
    <!-- T piece -->
    <rect x="100" y="40" width="18" height="18" fill="#fbbf24"/>
    <rect x="118" y="40" width="18" height="18" fill="#fbbf24"/>
    <rect x="136" y="40" width="18" height="18" fill="#fbbf24"/>
    <rect x="118" y="58" width="18" height="18" fill="#fbbf24"/>
    <rect x="118" y="76" width="18" height="18" fill="#fbbf24"/>
    <!-- X piece -->
    <rect x="180" y="58" width="18" height="18" fill="#f43f5e"/>
    <rect x="162" y="76" width="18" height="18" fill="#f43f5e"/>
    <rect x="180" y="76" width="18" height="18" fill="#f43f5e"/>
    <rect x="198" y="76" width="18" height="18" fill="#f43f5e"/>
    <rect x="180" y="94" width="18" height="18" fill="#f43f5e"/>
    <!-- U piece -->
    <rect x="232" y="40" width="18" height="18" fill="#10b981"/>
    <rect x="268" y="40" width="18" height="18" fill="#10b981"/>
    <rect x="232" y="58" width="18" height="18" fill="#10b981"/>
    <rect x="250" y="58" width="18" height="18" fill="#10b981"/>
    <rect x="268" y="58" width="18" height="18" fill="#10b981"/>
    <!-- I piece -->
    <rect x="60" y="130" width="18" height="18" fill="#a855f7"/>
    <rect x="78" y="130" width="18" height="18" fill="#a855f7"/>
    <rect x="96" y="130" width="18" height="18" fill="#a855f7"/>
    <rect x="114" y="130" width="18" height="18" fill="#a855f7"/>
    <rect x="132" y="130" width="18" height="18" fill="#a855f7"/>
  </g>
</svg>
