<svg xmlns="http://www.w3.org/2000/svg" viewBox="0 0 320 180" role="img" aria-label="Pipe Puzzle Vorschau">
  <rect width="320" height="180" fill="#0f172a"/>
  <g stroke="#475569" stroke-width="1">
    <rect x="80" y="20" width="40" height="40" fill="#1e293b"/>
    <rect x="120" y="20" width="40" height="40" fill="#1e293b"/>
    <rect x="160" y="20" width="40" height="40" fill="#1e293b"/>
    <rect x="200" y="20" width="40" height="40" fill="#1e293b"/>
    <rect x="80" y="60" width="40" height="40" fill="#1e293b"/>
    <rect x="120" y="60" width="40" height="40" fill="#1e293b"/>
    <rect x="160" y="60" width="40" height="40" fill="#1e293b"/>
    <rect x="200" y="60" width="40" height="40" fill="#1e293b"/>
    <rect x="80" y="100" width="40" height="40" fill="#1e293b"/>
    <rect x="120" y="100" width="40" height="40" fill="#1e293b"/>
    <rect x="160" y="100" width="40" height="40" fill="#1e293b"/>
    <rect x="200" y="100" width="40" height="40" fill="#1e293b"/>
  </g>
  <g fill="#10b981">
    <rect x="92" y="32" width="16" height="16"/>
    <rect x="100" y="20" width="8" height="20"/>
    <rect x="92" y="40" width="36" height="8"/>
    <rect x="132" y="32" width="16" height="16"/>
    <rect x="132" y="40" width="36" height="8"/>
    <rect x="172" y="32" width="16" height="16"/>
    <rect x="180" y="40" width="8" height="60"/>
    <rect x="172" y="112" width="16" height="16"/>
    <rect x="180" y="100" width="8" height="20"/>
    <rect x="172" y="120" width="36" height="8"/>
    <rect x="212" y="112" width="16" height="16"/>
    <rect x="220" y="120" width="8" height="20"/>
  </g>
  <g fill="#64748b">
    <rect x="92" y="72" width="16" height="16"/>
    <rect x="92" y="112" width="16" height="16"/>
    <rect x="132" y="72" width="16" height="16"/>
    <rect x="132" y="112" width="16" height="16"/>
    <rect x="212" y="32" width="16" height="16"/>
    <rect x="212" y="72" width="16" height="16"/>
  </g>
</svg>
