<svg xmlns="http://www.w3.org/2000/svg" viewBox="0 0 320 180" role="img" aria-label="Roulette Vorschau">
  <rect width="320" height="180" fill="#0f172a"/>
  <circle cx="80" cy="90" r="60" fill="#1e293b" stroke="#fbbf24" stroke-width="3"/>
  <text x="80" y="98" text-anchor="middle" font-family="ui-sans-serif,system-ui" font-size="32" font-weight="800" fill="#fff">17</text>
  <g font-family="ui-sans-serif,system-ui" font-size="14" font-weight="800" text-anchor="middle" fill="#fff">
    <rect x="170" y="40" width="28" height="28" fill="#16a34a"/>
    <text x="184" y="60">0</text>
    <rect x="200" y="40" width="28" height="28" fill="#b91c1c"/>
    <text x="214" y="60">1</text>
    <rect x="230" y="40" width="28" height="28" fill="#1f2937"/>
    <text x="244" y="60">2</text>
    <rect x="260" y="40" width="28" height="28" fill="#b91c1c"/>
    <text x="274" y="60">3</text>
    <rect x="200" y="70" width="28" height="28" fill="#1f2937"/>
    <text x="214" y="90">4</text>
    <rect x="230" y="70" width="28" height="28" fill="#b91c1c"/>
    <text x="244" y="90">5</text>
    <rect x="260" y="70" width="28" height="28" fill="#1f2937"/>
    <text x="274" y="90">6</text>
    <rect x="200" y="100" width="44" height="20" fill="#b91c1c"/>
    <text x="222" y="115" font-size="11">Rot</text>
    <rect x="244" y="100" width="44" height="20" fill="#1f2937"/>
    <text x="266" y="115" font-size="11">Schwarz</text>
  </g>
  <circle cx="80" cy="155" r="9" fill="#fbbf24"/>
  <text x="80" y="159" text-anchor="middle" font-family="ui-sans-serif,system-ui" font-size="11" font-weight="800" fill="#1e293b">25</text>
</svg>
