<svg xmlns="http://www.w3.org/2000/svg" viewBox="0 0 320 180" role="img" aria-label="Zahlentafel Vorschau">
  <rect width="320" height="180" fill="#f1f5f9"/>
  <g font-family="ui-sans-serif,system-ui" font-size="18" font-weight="700" fill="#0f172a">
    <rect x="60" y="20" width="36" height="36" rx="6" fill="#ffffff" stroke="#cbd5e1"/>
    <text x="78" y="44" text-anchor="middle">7</text>
    <rect x="100" y="20" width="36" height="36" rx="6" fill="#ffffff" stroke="#cbd5e1"/>
    <text x="118" y="44" text-anchor="middle">2</text>
    <rect x="140" y="20" width="36" height="36" rx="6" fill="#ffffff" stroke="#cbd5e1"/>
    <text x="158" y="44" text-anchor="middle">15</text>
    <rect x="180" y="20" width="36" height="36" rx="6" fill="#ffffff" stroke="#cbd5e1"/>
    <text x="198" y="44" text-anchor="middle">9</text>
    <rect x="220" y="20" width="36" height="36" rx="6" fill="#dcfce7" stroke="#86efac"/>
    <text x="238" y="44" text-anchor="middle" fill="#065f46">1</text>
    <rect x="60" y="60" width="36" height="36" rx="6" fill="#ffffff" stroke="#cbd5e1"/>
    <text x="78" y="84" text-anchor="middle">14</text>
    <rect x="100" y="60" width="36" height="36" rx="6" fill="#dcfce7" stroke="#86efac"/>
    <text x="118" y="84" text-anchor="middle" fill="#065f46">2</text>
    <rect x="140" y="60" width="36" height="36" rx="6" fill="#ffffff" stroke="#cbd5e1"/>
    <text x="158" y="84" text-anchor="middle">22</text>
    <rect x="180" y="60" width="36" height="36" rx="6" fill="#ffffff" stroke="#cbd5e1"/>
    <text x="198" y="84" text-anchor="middle">5</text>
    <rect x="220" y="60" width="36" height="36" rx="6" fill="#ffffff" stroke="#cbd5e1"/>
    <text x="238" y="84" text-anchor="middle">18</text>
    <rect x="60" y="100" width="36" height="36" rx="6" fill="#ffffff" stroke="#cbd5e1"/>
    <text x="78" y="124" text-anchor="middle">11</text>
    <rect x="100" y="100" width="36" height="36" rx="6" fill="#ffffff" stroke="#cbd5e1"/>
    <text x="118" y="124" text-anchor="middle">25</text>
    <rect x="140" y="100" width="36" height="36" rx="6" fill="#dcfce7" stroke="#86efac"/>
    <text x="158" y="124" text-anchor="middle" fill="#065f46">3</text>
    <rect x="180" y="100" width="36" height="36" rx="6" fill="#ffffff" stroke="#cbd5e1"/>
    <text x="198" y="124" text-anchor="middle">19</text>
    <rect x="220" y="100" width="36" height="36" rx="6" fill="#ffffff" stroke="#cbd5e1"/>
    <text x="238" y="124" text-anchor="middle">6</text>
    <rect x="60" y="140" width="36" height="36" rx="6" fill="#ffffff" stroke="#cbd5e1"/>
    <text x="78" y="164" text-anchor="middle">21</text>
    <rect x="100" y="140" width="36" height="36" rx="6" fill="#ffffff" stroke="#cbd5e1"/>
    <text x="118" y="164" text-anchor="middle">10</text>
    <rect x="140" y="140" width="36" height="36" rx="6" fill="#ffffff" stroke="#cbd5e1"/>
    <text x="158" y="164" text-anchor="middle">17</text>
    <rect x="180" y="140" width="36" height="36" rx="6" fill="#dcfce7" stroke="#86efac"/>
    <text x="198" y="164" text-anchor="middle" fill="#065f46">4</text>
    <rect x="220" y="140" width="36" height="36" rx="6" fill="#ffffff" stroke="#cbd5e1"/>
    <text x="238" y="164" text-anchor="middle">13</text>
  </g>
</svg>
