<svg xmlns="http://www.w3.org/2000/svg" viewBox="0 0 640 360" role="img" aria-label="Vorschau: Schiebepuzzle">
  <rect width="640" height="360" rx="20" fill="#f1f5f9"/>
  <rect x="180" y="20" width="280" height="320" rx="16" fill="#cbd5e1"/>
  <g font-family="system-ui, sans-serif" font-weight="700" font-size="26" text-anchor="middle">
    <!-- Row 1 -->
    <rect x="195" y="35" width="60" height="60" rx="10" fill="#fff" stroke="#7c3aed" stroke-width="2"/>
    <text x="225" y="76" fill="#5b21b6">1</text>
    <rect x="265" y="35" width="60" height="60" rx="10" fill="#fff" stroke="#7c3aed" stroke-width="2"/>
    <text x="295" y="76" fill="#5b21b6">2</text>
    <rect x="335" y="35" width="60" height="60" rx="10" fill="#fff" stroke="#7c3aed" stroke-width="2"/>
    <text x="365" y="76" fill="#5b21b6">3</text>
    <rect x="405" y="35" width="60" height="60" rx="10" fill="#fff" stroke="#7c3aed" stroke-width="2"/>
    <text x="435" y="76" fill="#5b21b6">4</text>
    <!-- Row 2 -->
    <rect x="195" y="105" width="60" height="60" rx="10" fill="#fff" stroke="#7c3aed" stroke-width="2"/>
    <text x="225" y="146" fill="#5b21b6">5</text>
    <rect x="265" y="105" width="60" height="60" rx="10" fill="#fff" stroke="#7c3aed" stroke-width="2"/>
    <text x="295" y="146" fill="#5b21b6">6</text>
    <rect x="335" y="105" width="60" height="60" rx="10" fill="#fff" stroke="#7c3aed" stroke-width="2"/>
    <text x="365" y="146" fill="#5b21b6">7</text>
    <rect x="405" y="105" width="60" height="60" rx="10" fill="#fff" stroke="#7c3aed" stroke-width="2"/>
    <text x="435" y="146" fill="#5b21b6">8</text>
    <!-- Row 3 -->
    <rect x="195" y="175" width="60" height="60" rx="10" fill="#fff" stroke="#7c3aed" stroke-width="2"/>
    <text x="225" y="216" fill="#5b21b6">9</text>
    <rect x="265" y="175" width="60" height="60" rx="10" fill="#fff" stroke="#7c3aed" stroke-width="2"/>
    <text x="295" y="216" fill="#5b21b6">10</text>
    <rect x="335" y="175" width="60" height="60" rx="10" fill="#fff" stroke="#7c3aed" stroke-width="2"/>
    <text x="365" y="216" fill="#5b21b6">11</text>
    <rect x="405" y="175" width="60" height="60" rx="10" fill="#fff" stroke="#7c3aed" stroke-width="2"/>
    <text x="435" y="216" fill="#5b21b6">12</text>
    <!-- Row 4 -->
    <rect x="195" y="245" width="60" height="60" rx="10" fill="#fff" stroke="#7c3aed" stroke-width="2"/>
    <text x="225" y="286" fill="#5b21b6">13</text>
    <rect x="265" y="245" width="60" height="60" rx="10" fill="#fff" stroke="#7c3aed" stroke-width="2"/>
    <text x="295" y="286" fill="#5b21b6">14</text>
    <rect x="335" y="245" width="60" height="60" rx="10" fill="#fff" stroke="#7c3aed" stroke-width="2"/>
    <text x="365" y="286" fill="#5b21b6">15</text>
    <!-- Empty cell at bottom right -->
    <rect x="405" y="245" width="60" height="60" rx="10" fill="#e2e8f0"/>
  </g>
</svg>
