<svg xmlns="http://www.w3.org/2000/svg" viewBox="0 0 320 180" role="img" aria-label="Slitherlink Vorschau">
  <rect width="320" height="180" fill="#0f172a"/>
  <g fill="#fbbf24">
    <circle cx="100" cy="40" r="3"/>
    <circle cx="140" cy="40" r="3"/>
    <circle cx="180" cy="40" r="3"/>
    <circle cx="220" cy="40" r="3"/>
    <circle cx="100" cy="80" r="3"/>
    <circle cx="140" cy="80" r="3"/>
    <circle cx="180" cy="80" r="3"/>
    <circle cx="220" cy="80" r="3"/>
    <circle cx="100" cy="120" r="3"/>
    <circle cx="140" cy="120" r="3"/>
    <circle cx="180" cy="120" r="3"/>
    <circle cx="220" cy="120" r="3"/>
    <circle cx="100" cy="160" r="3"/>
    <circle cx="140" cy="160" r="3"/>
    <circle cx="180" cy="160" r="3"/>
    <circle cx="220" cy="160" r="3"/>
  </g>
  <path d="M100 40 L180 40 L180 80 L220 80 L220 120 L140 120 L140 80 L100 80 Z" stroke="#fbbf24" stroke-width="3" fill="none"/>
  <g font-family="ui-sans-serif,system-ui" font-size="14" font-weight="800" text-anchor="middle">
    <text x="120" y="65" fill="#10b981">2</text>
    <text x="160" y="65" fill="#10b981">3</text>
    <text x="200" y="105" fill="#10b981">3</text>
    <text x="160" y="105" fill="#94a3b8">1</text>
    <text x="120" y="145" fill="#94a3b8">0</text>
  </g>
</svg>
