<svg xmlns="http://www.w3.org/2000/svg" viewBox="0 0 320 180" role="img" aria-label="Buchstabierbiene Vorschau">
  <rect width="320" height="180" fill="#020617"/>
  <g font-family="'Segoe UI', system-ui, sans-serif" font-weight="800" text-anchor="middle">
    <!-- Top row -->
    <polygon points="135,30 158,17 181,30 181,56 158,69 135,56" fill="#334155"/>
    <text x="158" y="48" font-size="18" fill="#e2e8f0">B</text>
    <polygon points="185,30 208,17 231,30 231,56 208,69 185,56" fill="#334155"/>
    <text x="208" y="48" font-size="18" fill="#e2e8f0">R</text>

    <!-- Middle row -->
    <polygon points="110,73 133,60 156,73 156,99 133,112 110,99" fill="#334155"/>
    <text x="133" y="91" font-size="18" fill="#e2e8f0">A</text>
    <polygon points="160,73 183,60 206,73 206,99 183,112 160,99" fill="#fbbf24"/>
    <text x="183" y="91" font-size="20" fill="#0f172a">E</text>
    <polygon points="210,73 233,60 256,73 256,99 233,112 210,99" fill="#334155"/>
    <text x="233" y="91" font-size="18" fill="#e2e8f0">N</text>

    <!-- Bottom row -->
    <polygon points="135,116 158,103 181,116 181,142 158,155 135,142" fill="#334155"/>
    <text x="158" y="134" font-size="18" fill="#e2e8f0">S</text>
    <polygon points="185,116 208,103 231,116 231,142 208,155 185,142" fill="#334155"/>
    <text x="208" y="134" font-size="18" fill="#e2e8f0">T</text>
  </g>
</svg>
