<svg xmlns="http://www.w3.org/2000/svg" viewBox="0 0 320 180" role="img" aria-label="Sudoku Vorschau">
  <rect width="320" height="180" fill="#f8fafc"/>
  <g transform="translate(82 10)">
    <rect x="0" y="0" width="160" height="160" fill="#ffffff" stroke="#0f172a" stroke-width="2"/>
    <g stroke="#cbd5e1" stroke-width="1">
      <line x1="0" y1="18" x2="160" y2="18"/>
      <line x1="0" y1="36" x2="160" y2="36"/>
      <line x1="0" y1="72" x2="160" y2="72"/>
      <line x1="0" y1="90" x2="160" y2="90"/>
      <line x1="0" y1="124" x2="160" y2="124"/>
      <line x1="0" y1="142" x2="160" y2="142"/>
      <line x1="18" y1="0" x2="18" y2="160"/>
      <line x1="36" y1="0" x2="36" y2="160"/>
      <line x1="72" y1="0" x2="72" y2="160"/>
      <line x1="90" y1="0" x2="90" y2="160"/>
      <line x1="124" y1="0" x2="124" y2="160"/>
      <line x1="142" y1="0" x2="142" y2="160"/>
    </g>
    <g stroke="#0f172a" stroke-width="1.5">
      <line x1="0" y1="54" x2="160" y2="54"/>
      <line x1="0" y1="108" x2="160" y2="108"/>
      <line x1="54" y1="0" x2="54" y2="160"/>
      <line x1="108" y1="0" x2="108" y2="160"/>
    </g>
    <g font-family="ui-sans-serif,system-ui" font-size="13" font-weight="700" fill="#0f172a">
      <text x="9" y="14" text-anchor="middle">5</text>
      <text x="45" y="14" text-anchor="middle">3</text>
      <text x="81" y="14" text-anchor="middle">7</text>
      <text x="9" y="32" text-anchor="middle">6</text>
      <text x="63" y="32" text-anchor="middle">1</text>
      <text x="99" y="32" text-anchor="middle">5</text>
      <text x="153" y="50" text-anchor="middle">6</text>
      <text x="9" y="68" text-anchor="middle">8</text>
      <text x="45" y="86" text-anchor="middle">4</text>
      <text x="63" y="104" text-anchor="middle">9</text>
      <text x="81" y="122" text-anchor="middle">2</text>
      <text x="117" y="140" text-anchor="middle">7</text>
      <text x="153" y="158" text-anchor="middle">9</text>
    </g>
  </g>
</svg>
