<svg xmlns="http://www.w3.org/2000/svg" viewBox="0 0 640 360" role="img" aria-label="Vorschau: 2048">
  <rect width="640" height="360" rx="20" fill="#f1f5f9"/>
  <rect x="180" y="20" width="280" height="320" rx="16" fill="#cbd5e1"/>
  <g font-family="system-ui, sans-serif" font-weight="700" text-anchor="middle">
    <!-- 4x4 grid of tiles within 180,20 - 460,340 -->
    <!-- Row 1 -->
    <rect x="195" y="35" width="60" height="60" rx="10" fill="#e2e8f0"/>
    <rect x="265" y="35" width="60" height="60" rx="10" fill="#fef3c7"/>
    <text x="295" y="78" font-size="28" fill="#1e293b">2</text>
    <rect x="335" y="35" width="60" height="60" rx="10" fill="#fde68a"/>
    <text x="365" y="78" font-size="28" fill="#1e293b">4</text>
    <rect x="405" y="35" width="60" height="60" rx="10" fill="#e2e8f0"/>
    <!-- Row 2 -->
    <rect x="195" y="105" width="60" height="60" rx="10" fill="#fb923c"/>
    <text x="225" y="148" font-size="26" fill="#fff">16</text>
    <rect x="265" y="105" width="60" height="60" rx="10" fill="#fdba74"/>
    <text x="295" y="148" font-size="26" fill="#fff">8</text>
    <rect x="335" y="105" width="60" height="60" rx="10" fill="#e2e8f0"/>
    <rect x="405" y="105" width="60" height="60" rx="10" fill="#fde68a"/>
    <text x="435" y="148" font-size="28" fill="#1e293b">4</text>
    <!-- Row 3 -->
    <rect x="195" y="175" width="60" height="60" rx="10" fill="#fcd34d"/>
    <text x="225" y="216" font-size="22" fill="#1e293b">128</text>
    <rect x="265" y="175" width="60" height="60" rx="10" fill="#f97316"/>
    <text x="295" y="218" font-size="24" fill="#fff">32</text>
    <rect x="335" y="175" width="60" height="60" rx="10" fill="#ef4444"/>
    <text x="365" y="218" font-size="24" fill="#fff">64</text>
    <rect x="405" y="175" width="60" height="60" rx="10" fill="#fb923c"/>
    <text x="435" y="218" font-size="26" fill="#fff">16</text>
    <!-- Row 4 -->
    <rect x="195" y="245" width="60" height="60" rx="10" fill="#e2e8f0"/>
    <rect x="265" y="245" width="60" height="60" rx="10" fill="#fbbf24"/>
    <text x="295" y="286" font-size="22" fill="#1e293b">256</text>
    <rect x="335" y="245" width="60" height="60" rx="10" fill="#fef3c7"/>
    <text x="365" y="288" font-size="28" fill="#1e293b">2</text>
    <rect x="405" y="245" width="60" height="60" rx="10" fill="#e2e8f0"/>
  </g>
  <text x="50" y="50" font-family="system-ui, sans-serif" font-size="42" font-weight="800" fill="#0f172a">2048</text>
</svg>
