<svg xmlns="http://www.w3.org/2000/svg" viewBox="0 0 320 180" role="img" aria-label="4 Bilder 1 Wort Vorschau">
  <rect width="320" height="180" fill="#0f172a"/>
  <g>
    <rect x="60" y="20" width="80" height="60" rx="8" fill="#1e293b"/>
    <text x="100" y="65" text-anchor="middle" font-size="36">🌊</text>
    <rect x="180" y="20" width="80" height="60" rx="8" fill="#1e293b"/>
    <text x="220" y="65" text-anchor="middle" font-size="36">🏄</text>
    <rect x="60" y="85" width="80" height="60" rx="8" fill="#1e293b"/>
    <text x="100" y="130" text-anchor="middle" font-size="36">🐚</text>
    <rect x="180" y="85" width="80" height="60" rx="8" fill="#1e293b"/>
    <text x="220" y="130" text-anchor="middle" font-size="36">☀️</text>
  </g>
  <g font-family="ui-sans-serif,system-ui" font-size="12" font-weight="800" text-anchor="middle">
    <rect x="80" y="155" width="20" height="20" rx="3" fill="#fbbf24"/>
    <text x="90" y="170" fill="#0f172a">S</text>
    <rect x="105" y="155" width="20" height="20" rx="3" fill="#fbbf24"/>
    <text x="115" y="170" fill="#0f172a">T</text>
    <rect x="130" y="155" width="20" height="20" rx="3" fill="#fbbf24"/>
    <text x="140" y="170" fill="#0f172a">R</text>
    <rect x="155" y="155" width="20" height="20" rx="3" fill="#fbbf24"/>
    <text x="165" y="170" fill="#0f172a">A</text>
    <rect x="180" y="155" width="20" height="20" rx="3" fill="#fbbf24"/>
    <text x="190" y="170" fill="#0f172a">N</text>
    <rect x="205" y="155" width="20" height="20" rx="3" fill="#fbbf24"/>
    <text x="215" y="170" fill="#0f172a">D</text>
  </g>
</svg>
