<svg xmlns="http://www.w3.org/2000/svg" viewBox="0 0 320 180" role="img" aria-label="4 Gewinnt Vorschau">
  <rect width="320" height="180" fill="#0f172a"/>
  <rect x="56" y="20" width="208" height="140" rx="10" fill="#0369a1"/>
  <g>
    <circle cx="80" cy="40" r="12" fill="#1e293b"/>
    <circle cx="110" cy="40" r="12" fill="#1e293b"/>
    <circle cx="140" cy="40" r="12" fill="#1e293b"/>
    <circle cx="170" cy="40" r="12" fill="#1e293b"/>
    <circle cx="200" cy="40" r="12" fill="#1e293b"/>
    <circle cx="230" cy="40" r="12" fill="#fbbf24"/>
    <circle cx="80" cy="70" r="12" fill="#1e293b"/>
    <circle cx="110" cy="70" r="12" fill="#1e293b"/>
    <circle cx="140" cy="70" r="12" fill="#1e293b"/>
    <circle cx="170" cy="70" r="12" fill="#1e293b"/>
    <circle cx="200" cy="70" r="12" fill="#f43f5e"/>
    <circle cx="230" cy="70" r="12" fill="#1e293b"/>
    <circle cx="80" cy="100" r="12" fill="#1e293b"/>
    <circle cx="110" cy="100" r="12" fill="#1e293b"/>
    <circle cx="140" cy="100" r="12" fill="#fbbf24"/>
    <circle cx="170" cy="100" r="12" fill="#f43f5e"/>
    <circle cx="200" cy="100" r="12" fill="#fbbf24"/>
    <circle cx="230" cy="100" r="12" fill="#f43f5e"/>
    <circle cx="80" cy="130" r="12" fill="#1e293b"/>
    <circle cx="110" cy="130" r="12" fill="#f43f5e"/>
    <circle cx="140" cy="130" r="12" fill="#fbbf24" stroke="#10b981" stroke-width="3"/>
    <circle cx="170" cy="130" r="12" fill="#fbbf24" stroke="#10b981" stroke-width="3"/>
    <circle cx="200" cy="130" r="12" fill="#fbbf24" stroke="#10b981" stroke-width="3"/>
    <circle cx="230" cy="130" r="12" fill="#fbbf24" stroke="#10b981" stroke-width="3"/>
  </g>
</svg>
