<svg xmlns="http://www.w3.org/2000/svg" viewBox="0 0 320 180" role="img" aria-label="Wortgitter Vorschau">
  <rect width="320" height="180" fill="#f8fafc"/>
  <g transform="translate(60 20)" font-family="ui-sans-serif,system-ui" font-size="14" font-weight="700" fill="#0f172a">
    <rect width="200" height="140" fill="#ffffff" stroke="#cbd5e1"/>
    <rect x="0" y="35" width="200" height="20" fill="#bbf7d0" opacity="0.7"/>
    <rect x="60" y="0" width="20" height="140" fill="#bfdbfe" opacity="0.7"/>
    <text x="13" y="18" text-anchor="middle">B</text>
    <text x="38" y="18" text-anchor="middle">A</text>
    <text x="63" y="18" text-anchor="middle">U</text>
    <text x="88" y="18" text-anchor="middle">M</text>
    <text x="113" y="18" text-anchor="middle">Z</text>
    <text x="138" y="18" text-anchor="middle">T</text>
    <text x="163" y="18" text-anchor="middle">G</text>
    <text x="188" y="18" text-anchor="middle">H</text>
    <text x="13" y="48" text-anchor="middle">B</text>
    <text x="38" y="48" text-anchor="middle">L</text>
    <text x="63" y="48" text-anchor="middle">U</text>
    <text x="88" y="48" text-anchor="middle">M</text>
    <text x="113" y="48" text-anchor="middle">E</text>
    <text x="138" y="48" text-anchor="middle">N</text>
    <text x="163" y="48" text-anchor="middle">Q</text>
    <text x="188" y="48" text-anchor="middle">W</text>
    <text x="13" y="78" text-anchor="middle">R</text>
    <text x="38" y="78" text-anchor="middle">F</text>
    <text x="63" y="78" text-anchor="middle">H</text>
    <text x="88" y="78" text-anchor="middle">U</text>
    <text x="113" y="78" text-anchor="middle">N</text>
    <text x="138" y="78" text-anchor="middle">D</text>
    <text x="163" y="78" text-anchor="middle">X</text>
    <text x="188" y="78" text-anchor="middle">P</text>
    <text x="13" y="108" text-anchor="middle">V</text>
    <text x="38" y="108" text-anchor="middle">Y</text>
    <text x="63" y="108" text-anchor="middle">N</text>
    <text x="88" y="108" text-anchor="middle">D</text>
    <text x="113" y="108" text-anchor="middle">I</text>
    <text x="138" y="108" text-anchor="middle">F</text>
    <text x="163" y="108" text-anchor="middle">M</text>
    <text x="188" y="108" text-anchor="middle">A</text>
    <text x="13" y="135" text-anchor="middle">K</text>
    <text x="38" y="135" text-anchor="middle">O</text>
    <text x="63" y="135" text-anchor="middle">E</text>
    <text x="88" y="135" text-anchor="middle">L</text>
    <text x="113" y="135" text-anchor="middle">S</text>
    <text x="138" y="135" text-anchor="middle">M</text>
    <text x="163" y="135" text-anchor="middle">I</text>
    <text x="188" y="135" text-anchor="middle">N</text>
  </g>
</svg>
